<?xml version="1.0" standalone="no"?>
<!DOCTYPE svg PUBLIC "-//W3C//DTD SVG 20010904//EN"
 "http://www.w3.org/TR/2001/REC-SVG-20010904/DTD/svg10.dtd">
<svg version="1.0" xmlns="http://www.w3.org/2000/svg"
 width="300.000000pt" height="311.000000pt" viewBox="0 0 300.000000 311.000000"
 preserveAspectRatio="xMidYMid meet">
<metadata>
Created by potrace 1.10, written by Peter Selinger 2001-2011
</metadata>
<g transform="translate(0.000000,311.000000) scale(0.100000,-0.100000)"
fill="#000000" stroke="none">
<path d="M1380 2809 c-79 -46 -101 -126 -55 -204 46 -79 137 -99 200 -44 89
78 88 183 -2 244 -46 31 -95 32 -143 4z m103 -20 c71 -37 91 -92 57 -158 -54
-107 -203 -72 -203 48 0 49 24 88 66 106 40 17 52 18 80 4z"/>
<path d="M545 2772 c-40 -7 -45 -29 -45 -189 0 -148 1 -153 23 -164 25 -14
246 -19 289 -6 43 12 52 40 54 172 2 123 -10 184 -38 186 -34 4 -265 4 -283 1z
m295 -170 c0 -102 -4 -152 -12 -160 -13 -13 -242 -17 -285 -6 -23 6 -23 9 -23
160 l0 154 160 0 160 0 0 -148z"/>
<path d="M578 2595 l-3 -105 103 0 102 0 0 105 0 105 -99 0 -100 0 -3 -105z
m158 58 c18 -24 18 -107 0 -122 -17 -14 -103 -12 -115 3 -13 16 -19 66 -9 66
5 0 5 7 0 16 -25 45 92 79 124 37z"/>
<path d="M2053 2670 c-40 -37 -28 -72 34 -100 47 -21 89 -25 110 -12 20 13 33
60 23 86 -12 32 -21 37 -88 42 -48 5 -60 2 -79 -16z m145 -52 c-3 -40 -5 -43
-35 -46 -25 -2 -33 1 -33 12 0 12 -10 16 -41 16 -33 0 -40 3 -35 16 3 9 6 22
6 30 0 11 16 14 71 14 l70 0 -3 -42z"/>
<path d="M1724 2670 c-17 -4 -43 -15 -57 -26 -30 -22 -67 -89 -67 -123 0 -31
35 -96 65 -119 86 -68 220 -3 232 111 9 94 -82 176 -173 157z m107 -66 c36
-34 44 -72 26 -116 -19 -46 -65 -78 -112 -78 -55 0 -105 52 -105 110 0 52 13
76 53 101 43 27 99 20 138 -17z"/>
<path d="M1074 2652 c-75 -48 -103 -131 -65 -199 34 -59 83 -86 144 -80 43 4
56 10 88 45 48 50 58 98 34 152 -39 87 -132 125 -201 82z m144 -58 c37 -38 41
-76 16 -129 -19 -40 -74 -70 -112 -60 -77 19 -114 85 -87 153 35 86 119 102
183 36z"/>
<path d="M1372 2491 c-107 -68 -92 -227 27 -277 54 -23 141 11 174 67 21 37
22 110 2 149 -35 68 -140 100 -203 61z m140 -41 c60 -47 58 -133 -3 -184 -43
-36 -88 -35 -133 5 -84 73 -40 199 69 199 27 0 51 -7 67 -20z"/>
<path d="M877 2388 c-23 -17 -27 -27 -27 -71 0 -29 7 -90 17 -137 9 -47 17
-101 18 -120 2 -19 5 -42 8 -50 11 -30 45 -224 64 -365 3 -22 12 -50 20 -62
16 -24 79 -63 132 -81 28 -10 33 -9 46 12 16 24 18 146 3 146 -5 0 -8 26 -8
58 0 31 -7 98 -15 147 -8 50 -15 113 -15 141 0 27 -6 56 -12 63 -11 11 -10 12
2 6 12 -7 13 -6 4 6 -6 8 -14 39 -17 69 -12 124 -29 169 -80 218 -42 40 -100
49 -140 20z m122 -46 c42 -44 58 -90 71 -200 30 -258 62 -514 70 -561 6 -30
10 -58 10 -62 0 -5 -33 9 -72 29 -40 20 -74 37 -75 37 -2 0 -62 318 -78 415
-7 41 -23 137 -35 213 -23 135 -23 138 -4 152 35 26 74 18 113 -23z"/>
<path d="M1913 2403 c-23 -4 -97 -82 -88 -91 3 -3 0 -11 -6 -18 -6 -7 -13 -37
-16 -66 -3 -29 -9 -61 -14 -70 -5 -9 -9 -34 -9 -55 0 -22 -4 -43 -9 -48 -4 -6
-16 -86 -25 -180 -9 -93 -19 -183 -22 -200 -12 -72 -14 -137 -4 -155 8 -15 17
-18 43 -13 17 3 34 10 35 15 2 4 12 8 23 8 10 0 19 5 19 10 0 6 6 10 13 10 7
0 26 14 43 32 16 17 22 27 14 23 -12 -7 -13 -6 -3 6 6 8 19 68 28 134 8 66 20
134 25 150 6 17 12 46 15 65 9 59 13 77 19 97 3 10 8 38 11 62 4 23 10 53 15
66 13 34 23 140 17 167 -4 13 -19 31 -36 41 -29 17 -44 19 -88 10z m92 -42
c14 -16 13 -30 -14 -162 -49 -241 -100 -511 -107 -566 -4 -33 -11 -53 -19 -53
-7 0 -39 -14 -70 -30 -32 -17 -59 -29 -60 -28 -6 8 78 638 96 718 12 52 55
120 87 136 28 14 66 7 87 -15z"/>
<path d="M632 2320 c-23 -22 -29 -69 -11 -87 8 -8 8 -13 0 -17 -16 -10 -13
-71 3 -85 8 -7 36 -11 63 -9 41 3 50 7 61 31 10 20 11 32 3 41 -7 8 -9 31 -5
58 5 38 3 49 -15 67 -27 27 -71 27 -99 1z m88 -45 c0 -30 -3 -35 -24 -35 -13
0 -31 -3 -40 -6 -13 -5 -16 2 -16 35 l0 41 40 0 c39 0 40 -1 40 -35z m10 -106
c0 -28 -1 -29 -50 -29 -49 0 -50 1 -50 29 0 28 3 30 43 33 54 4 57 2 57 -33z"/>
<path d="M1218 2209 c-15 -6 -33 -25 -43 -45 -15 -33 -15 -44 -1 -147 16 -116
21 -160 37 -312 25 -241 29 -259 68 -290 72 -57 141 -68 141 -21 0 17 2 18 10
6 7 -11 10 -1 10 35 0 36 -3 46 -10 35 -6 -10 -10 61 -11 210 -2 427 -4 445
-69 504 -42 38 -77 45 -132 25z m107 -41 c54 -42 57 -65 66 -431 4 -186 11
-342 14 -347 10 -16 -15 -11 -43 8 -15 11 -41 25 -59 32 -37 16 -31 -10 -73
345 -47 394 -47 379 -19 399 32 22 81 20 114 -6z"/>
<path d="M1548 2199 c-64 -61 -78 -160 -81 -562 -2 -280 -1 -284 52 -270 34 8
109 60 121 84 6 10 12 47 14 82 2 35 6 68 9 73 5 9 9 45 23 209 2 33 7 78 10
100 7 56 11 89 19 170 7 69 6 71 -23 99 -43 40 -109 47 -144 15z m113 -26 c20
-12 29 -25 29 -44 0 -14 -14 -142 -31 -285 -17 -142 -33 -288 -36 -324 l-5
-65 -62 -38 c-34 -20 -64 -37 -67 -37 -2 0 -1 120 3 267 10 415 16 467 63 517
28 30 64 34 106 9z"/>
<path d="M2180 2179 c-72 -15 -103 -97 -58 -154 32 -41 77 -57 119 -42 49 18
62 33 67 85 3 37 0 53 -17 74 -26 33 -66 47 -111 37z m78 -41 c37 -40 38 -73
4 -108 -37 -37 -61 -38 -101 -4 -37 31 -41 69 -10 108 27 34 77 36 107 4z"/>
<path d="M2198 2112 c-23 -5 -24 -48 -2 -56 19 -7 44 10 44 29 0 18 -22 32
-42 27z"/>
<path d="M2041 1860 c-21 -13 -30 -81 -26 -210 4 -165 -2 -160 190 -160 197 0
190 -7 191 184 2 197 14 185 -187 190 -86 2 -162 1 -168 -4z m326 -180 l0
-160 -161 0 -161 0 -3 163 -3 162 164 -3 164 -3 0 -159z"/>
<path d="M2198 1783 l-98 -4 0 -99 0 -100 89 0 c49 0 95 -2 103 -5 10 -4 14
17 15 105 1 60 -1 109 -5 108 -4 -1 -51 -4 -104 -5z m82 -108 c0 -33 -4 -45
-15 -45 -8 0 -14 -6 -12 -12 1 -9 -12 -12 -47 -11 -56 3 -70 17 -72 73 -2 63
2 69 59 72 67 4 87 -14 87 -77z"/>
<path d="M720 1851 c-128 -29 -115 -211 15 -210 42 0 68 15 98 59 23 34 21 57
-9 97 -31 41 -71 61 -104 54z m69 -56 c39 -44 39 -68 2 -106 -45 -44 -87 -39
-122 17 -25 40 -19 63 22 99 41 34 61 32 98 -10z"/>
<path d="M706 1754 c-9 -23 2 -34 35 -34 24 0 29 4 29 25 0 21 -5 25 -29 25
-17 0 -31 -6 -35 -16z"/>
<path d="M130 1249 c-22 -5 -49 -23 -72 -48 -31 -33 -38 -48 -38 -81 0 -61 31
-114 83 -139 64 -31 108 -26 154 18 l23 22 29 -22 c16 -12 49 -25 73 -30 36
-7 51 -4 92 17 l49 25 28 -27 c25 -24 31 -26 87 -19 33 4 76 17 97 30 l38 22
22 -24 c18 -21 32 -26 92 -30 70 -5 73 -5 102 25 28 27 36 30 96 30 36 0 65
-4 65 -9 0 -16 40 -49 59 -49 11 0 34 15 52 32 17 18 49 40 70 50 l38 16 25
-32 c27 -35 80 -66 115 -66 23 0 74 21 103 42 14 10 21 8 44 -15 32 -32 57
-29 90 10 12 14 41 34 64 44 43 19 43 19 57 -1 27 -38 57 -60 97 -71 32 -9 46
-7 78 7 21 9 38 20 38 24 0 20 35 18 63 -4 48 -36 97 -39 158 -9 43 22 52 23
62 11 31 -36 45 -40 76 -22 28 17 32 17 69 0 36 -16 42 -16 68 -3 25 13 32 13
49 1 23 -17 54 -9 76 19 l17 21 32 -27 c38 -33 63 -34 90 -5 17 19 20 35 20
123 0 93 -2 103 -23 123 -30 28 -39 28 -75 -3 l-29 -24 -33 24 c-41 31 -57 31
-86 4 l-23 -21 -44 21 c-64 31 -143 29 -178 -5 l-26 -25 -38 25 c-49 33 -98
33 -160 1 l-48 -26 -23 22 c-15 14 -40 23 -71 26 -41 4 -55 0 -92 -25 l-44
-30 -21 20 c-49 47 -137 53 -185 12 l-30 -25 -38 25 c-49 34 -103 34 -159 1
-38 -22 -74 -25 -74 -6 0 16 -53 31 -109 31 -66 0 -97 -23 -103 -75 -3 -29 -5
-30 -63 -33 -32 -2 -65 -8 -72 -13 -21 -18 -35 0 -18 24 42 60 4 97 -99 97
-62 0 -73 -3 -97 -26 l-28 -26 -31 22 c-23 16 -51 24 -99 28 -61 4 -70 2 -96
-20 l-29 -25 -34 23 c-49 33 -115 33 -166 -2 l-38 -26 -23 22 c-29 27 -79 39
-125 29z m99 -50 c31 -19 33 -22 18 -36 -13 -14 -21 -14 -42 -5 -35 16 -73 15
-91 -2 -20 -21 -17 -73 6 -96 24 -24 75 -26 88 -4 8 14 12 14 30 3 28 -18 28
-21 -7 -42 -36 -21 -99 -22 -129 -1 -45 31 -65 101 -41 145 15 29 69 59 104
59 17 0 45 -9 64 -21z m258 -23 c46 -50 45 -96 -1 -142 -28 -28 -42 -34 -75
-34 -49 0 -86 22 -107 61 -28 56 -15 106 39 140 48 30 103 20 144 -25z m231
17 c35 -22 56 -79 42 -113 -23 -54 -55 -74 -128 -78 l-67 -4 0 110 0 111 65
-6 c36 -3 76 -12 88 -20z m262 0 c0 -21 -4 -23 -60 -23 -57 0 -60 -1 -60 -24
0 -22 4 -24 48 -23 41 2 47 -1 47 -18 0 -18 -6 -20 -47 -17 -46 4 -48 3 -48
-23 0 -26 1 -26 57 -24 51 3 58 1 58 -17 0 -24 0 -24 -87 -24 l-73 0 0 108 0
107 83 0 c78 0 82 -1 82 -22z m340 12 c86 -44 54 -135 -47 -135 l-45 0 4 -37
c3 -34 0 -38 -22 -41 l-25 -3 0 116 0 115 53 0 c29 0 66 -7 82 -15z m240 0
c74 -38 79 -154 9 -191 -74 -38 -155 3 -166 83 -7 51 10 82 59 106 41 21 61
21 98 2z m191 5 c40 0 55 -5 74 -25 31 -30 32 -56 3 -89 -17 -19 -35 -26 -65
-28 -43 -3 -43 -3 -43 -42 0 -31 -3 -37 -16 -32 -9 3 -20 6 -25 6 -5 0 -9 50
-9 111 0 97 2 110 16 105 9 -3 38 -6 65 -6z m298 -11 c32 -19 33 -22 17 -37
-13 -14 -20 -14 -36 -4 -32 20 -68 15 -86 -13 -21 -32 -12 -69 22 -92 25 -16
28 -16 56 0 23 13 34 15 44 6 20 -16 18 -23 -15 -42 -62 -36 -139 -9 -161 58
-13 40 -6 70 24 104 40 45 84 51 135 20z m252 -15 c93 -89 -15 -229 -130 -169
-60 30 -75 120 -28 162 56 51 110 53 158 7z m247 3 c28 -26 29 -70 2 -97 -26
-26 -25 -32 5 -60 31 -30 32 -40 1 -40 -17 0 -33 12 -53 40 -18 26 -36 40 -50
40 -20 0 -23 -5 -23 -41 0 -33 -3 -40 -17 -37 -16 3 -19 19 -23 111 -3 60 -4
109 -3 110 1 1 32 0 70 -1 52 -3 73 -9 91 -25z m143 -4 c20 -21 46 -53 58 -70
12 -18 25 -33 29 -33 4 0 6 31 4 70 -4 69 -3 70 21 70 l25 0 -2 -112 c-1 -105
-2 -113 -21 -113 -12 0 -39 25 -72 69 l-53 68 0 -66 c0 -36 -4 -66 -9 -66 -5
0 -16 -3 -25 -6 -14 -5 -16 8 -16 110 0 132 5 138 61 79z m-2492 -62 c12 -8
12 -12 2 -25 -17 -20 -35 -20 -51 -1 -23 27 15 47 49 26z m1827 -5 c18 -14 18
-15 -9 -21 -32 -8 -42 -2 -34 20 8 19 18 19 43 1z m-896 -38 c0 -27 -1 -28
-55 -28 -54 0 -55 1 -55 28 0 27 1 28 55 28 54 0 55 -1 55 -28z"/>
<path d="M350 1151 c-16 -31 -12 -65 10 -89 41 -43 110 -17 110 42 0 42 -26
66 -73 66 -26 0 -39 -6 -47 -19z m74 -29 c2 -4 1 -14 -4 -22 -7 -11 -11 -12
-25 0 -13 10 -13 15 -3 21 17 11 26 11 32 1z"/>
<path d="M610 1104 l0 -67 38 6 c40 7 72 37 72 68 0 31 -36 59 -75 59 l-35 0
0 -66z"/>
<path d="M1230 1137 c0 -35 0 -35 43 -33 40 1 42 3 42 31 0 28 -3 30 -42 33
-43 3 -43 3 -43 -31z"/>
<path d="M1462 1150 c-28 -46 -8 -96 44 -106 60 -12 96 76 47 114 -26 19 -76
15 -91 -8z"/>
<path d="M1714 1148 c3 -13 6 -29 6 -36 0 -19 60 -11 73 9 19 30 1 49 -44 49
-38 0 -41 -2 -35 -22z"/>
<path d="M2176 1148 c-9 -12 -16 -31 -16 -41 0 -24 44 -67 70 -67 50 0 80 79
42 113 -27 25 -78 22 -96 -5z"/>
<path d="M2430 1141 c0 -24 5 -30 30 -34 36 -8 56 -1 64 20 10 25 -13 43 -55
43 -36 0 -39 -2 -39 -29z"/>
<path d="M536 839 c-43 -51 -29 -117 31 -148 18 -9 29 -8 51 3 17 9 34 11 42
6 7 -4 23 -4 36 0 12 5 25 6 28 3 8 -8 197 -13 209 -6 6 4 31 5 56 4 120 -6
194 -5 211 1 30 11 33 43 8 94 -30 61 -49 72 -83 54 -19 -10 -31 -11 -43 -4
-10 6 -69 10 -137 9 -66 -1 -125 2 -132 7 -7 6 -18 6 -24 2 -17 -10 -159 -13
-165 -2 -13 20 -63 7 -88 -23z m152 -63 c-2 -31 -7 -56 -13 -56 -10 0 -17 108
-8 123 13 21 24 -15 21 -67z m-68 60 c0 -2 3 -12 6 -21 5 -13 2 -15 -18 -10
-33 8 -57 -18 -37 -41 8 -10 21 -13 36 -9 29 7 32 -19 4 -35 -26 -13 -27 -13
-51 12 -38 41 -15 108 37 108 12 0 23 -2 23 -4z m145 -23 l24 -28 1 28 c0 17
5 27 15 27 12 0 15 -13 15 -60 0 -47 -3 -60 -15 -60 -9 0 -20 11 -25 24 -14
38 -30 41 -30 7 0 -17 -4 -31 -10 -31 -6 0 -10 27 -10 60 0 33 2 60 5 60 3 0
17 -12 30 -27z m155 11 c3 -5 -5 -10 -17 -12 -25 -4 -32 -22 -8 -22 21 0 19
-30 -2 -31 -12 -1 -10 -3 6 -8 40 -11 38 -31 -3 -31 l-36 0 0 58 c0 56 1 57
27 56 16 0 30 -5 33 -10z m114 -9 c11 17 21 24 28 17 14 -14 6 -115 -11 -120
-10 -3 -12 3 -7 29 6 32 6 33 -8 15 -15 -18 -16 -18 -36 5 l-21 24 5 -32 c4
-26 2 -33 -11 -33 -13 0 -15 8 -9 46 3 26 6 54 6 63 0 11 7 7 23 -13 l23 -28
18 27z m139 -17 c8 -24 18 -51 22 -60 5 -12 3 -18 -5 -18 -7 0 -19 8 -26 18
-13 16 -15 16 -34 -7 -11 -13 -23 -21 -26 -18 -7 7 36 127 46 127 5 0 15 -19
23 -42z"/>
<path d="M1275 850 c-13 -14 -18 -35 -18 -70 1 -67 15 -83 64 -75 21 4 44 3
51 -1 17 -11 268 -12 275 -1 2 4 9 4 15 1 15 -10 101 -12 119 -3 9 5 30 3 48
-4 24 -9 38 -9 63 1 17 6 36 8 42 3 6 -4 97 -6 201 -4 105 2 203 4 219 4 16 0
35 4 42 10 8 6 20 6 37 -2 14 -6 32 -9 40 -6 13 5 67 104 67 124 0 33 -77 56
-118 34 -9 -5 -41 -5 -69 -2 -31 4 -57 3 -62 -2 -6 -6 -21 -5 -40 3 -18 7 -38
9 -48 4 -26 -12 -173 -13 -211 -2 -25 8 -38 6 -57 -6 -21 -14 -26 -14 -54 0
-29 15 -33 14 -66 -6 l-35 -22 -26 21 c-26 21 -53 17 -69 -10 -5 -7 -12 -6
-22 2 -19 16 -103 21 -120 8 -8 -8 -23 -7 -47 2 -31 11 -38 11 -54 -4 -17 -15
-21 -16 -32 -3 -7 9 -27 15 -48 14 -21 -1 -44 1 -53 5 -10 5 -22 0 -34 -13z
m45 -24 c0 -7 7 -19 15 -26 12 -10 17 -7 26 14 16 34 29 33 29 -3 0 -16 3 -43
6 -60 5 -25 3 -31 -11 -31 -13 0 -16 6 -13 25 6 27 -1 32 -20 13 -9 -9 -15 -8
-28 8 -15 18 -15 17 -10 -13 4 -25 2 -33 -9 -33 -12 0 -15 14 -15 60 0 47 3
60 15 60 8 0 15 -6 15 -14z m186 -49 c25 -58 17 -85 -14 -47 -19 24 -42 21
-42 -6 0 -8 -5 -12 -11 -8 -12 7 -6 38 17 92 17 41 21 38 50 -31z m89 36 l24
-28 1 28 c0 15 4 27 9 27 9 0 23 -98 15 -111 -8 -13 -31 1 -42 27 -16 33 -29
30 -24 -6 3 -21 0 -30 -9 -30 -11 0 -13 14 -11 60 2 33 6 60 8 60 3 0 16 -12
29 -27z m163 -29 c21 -52 22 -74 3 -74 -5 0 -11 9 -14 20 -7 27 -33 25 -41 -2
-4 -16 -8 -20 -16 -12 -8 8 -7 22 4 50 8 21 17 47 20 57 9 29 20 19 44 -39z
m120 44 c19 -19 14 -26 -13 -20 -28 5 -44 -21 -28 -46 17 -29 35 -27 27 3 -6
23 -4 26 12 23 14 -2 19 -12 19 -33 0 -26 -4 -30 -32 -33 -23 -2 -35 3 -47 20
-21 30 -20 50 4 76 23 25 40 28 58 10z m129 -1 c-2 -6 -13 -13 -25 -15 -28 -4
-29 -22 -2 -22 27 0 25 -18 -2 -30 -22 -8 -22 -9 5 -9 43 -1 36 -31 -8 -31
l-35 0 0 58 0 59 36 1 c24 1 34 -3 31 -11z m68 -7 c3 -11 13 -20 20 -20 8 0
19 9 25 20 20 37 30 21 30 -46 0 -48 -3 -65 -12 -61 -8 2 -12 18 -11 38 3 31
2 32 -9 12 -13 -27 -24 -29 -32 -8 -3 8 -10 15 -15 15 -6 0 -8 -7 -5 -15 9
-22 -4 -51 -17 -38 -11 11 -1 123 12 123 4 0 11 -9 14 -20z m180 5 c0 -5 -10
-11 -22 -13 -28 -4 -30 -22 -3 -22 11 0 20 -7 20 -15 0 -8 -7 -15 -15 -15 -8
0 -15 -4 -15 -9 0 -5 9 -7 20 -4 14 4 20 0 20 -11 0 -12 -9 -16 -35 -16 l-35
0 0 61 0 60 33 -3 c17 -2 32 -7 32 -13z m80 -12 l24 -28 1 28 c0 15 4 27 9 27
9 0 20 -108 11 -116 -2 -3 -17 10 -32 28 l-27 33 -1 -32 c0 -24 -5 -33 -16
-33 -11 0 -14 5 -10 16 3 9 6 36 6 60 0 24 2 44 5 44 3 0 17 -12 30 -27z m175
15 c0 -5 0 -12 0 -18 0 -5 -9 -10 -19 -10 -16 0 -18 -5 -14 -40 5 -35 3 -40
-14 -40 -18 0 -20 5 -15 45 4 37 2 45 -12 45 -9 0 -16 6 -16 14 0 10 13 13 45
12 25 0 45 -4 45 -8z"/>
</g>
</svg>
