<?xml version="1.0"?>
<svg width="300" height="295" xmlns="http://www.w3.org/2000/svg" xmlns:svg="http://www.w3.org/2000/svg" preserveAspectRatio="xMidYMid meet">
 <metadata>Created by potrace 1.10, written by Peter Selinger 2001-2011</metadata>
 <g class="layer">
  <title>Layer 1</title>
  <g fill="#000000" id="svg_1" transform="translate(0 295) scale(0.1 -0.1)">
   <path d="m2740,2943c-170,-12 -270,-40 -525,-148c-60,-26 -157,-64 -215,-85c-195,-72 -203,-75 -187,-88c11,-9 25,-6 65,13c73,35 90,33 98,-11c8,-41 -4,-54 -48,-54c-27,0 -37,-13 -19,-25c17,-10 103,15 231,67c384,155 448,176 553,188c76,9 121,29 104,47c-4,3 -13,1 -19,-5c-13,-13 -54,-16 -62,-4c-2,4 -7,23 -11,43l-7,36l81,7c44,4 83,12 86,17c6,9 -27,9 -125,2zm-55,-74c5,-22 3,-34 -6,-40c-25,-16 -47,-9 -53,15c-3,13 -9,31 -12,39c-4,11 2,17 23,19c37,5 40,3 48,-33zm-80,-20c6,-34 5,-37 -20,-41c-21,-4 -28,-1 -35,17c-18,46 -16,58 10,65c31,9 37,4 45,-41zm-75,-41c0,-10 -3,-18 -7,-18c-5,0 -18,-3 -29,-6c-18,-5 -24,0 -34,31c-7,20 -10,37 -8,39c1,1 14,7 28,13c22,9 26,8 37,-16c7,-14 12,-34 13,-43zm-97,-45c-26,-20 -43,-16 -53,13c-14,37 -13,42 18,58c27,14 27,14 40,-22c11,-32 11,-38 -5,-49zm-77,12c11,-34 10,-37 -17,-50c-31,-16 -34,-14 -43,32c-6,24 -3,34 11,42c29,17 37,13 49,-24zm-80,-32c5,-29 3,-39 -11,-50c-28,-19 -33,-17 -44,24c-9,30 -7,38 7,49c28,22 41,16 48,-23zm-78,-30c10,-33 9,-40 -5,-50c-28,-21 -42,-15 -49,23c-5,28 -3,38 12,49c27,20 29,19 42,-22zm-76,-34c5,-26 3,-37 -9,-46c-28,-21 -40,-15 -50,26c-9,35 -8,40 11,49c31,15 40,10 48,-29zm-78,-46c6,-26 4,-32 -14,-38c-27,-8 -26,-9 -35,42c-5,35 -4,42 12,45c21,5 28,-5 37,-49z" fill="#ffaad4" id="svg_2"/>
   <path d="m1190,2565c-145,-29 -295,-92 -405,-170c-164,-116 -316,-339 -376,-548c-24,-88 -37,-241 -20,-251c16,-10 14,-46 -4,-46c-8,0 -15,5 -15,10c0,16 -39,12 -171,-21c-127,-32 -153,-43 -145,-64c2,-7 -1,-18 -7,-24c-8,-8 -8,-11 0,-11c6,0 18,11 27,25c22,34 33,32 28,-5c-2,-17 1,-37 8,-44c6,-8 13,-31 15,-51c2,-19 8,-42 15,-50c6,-8 9,-23 5,-35c-4,-12 -1,-27 5,-35c7,-9 9,-22 5,-32c-15,-33 -10,-48 19,-66c22,-14 34,-16 50,-9c27,13 55,12 53,-2c-3,-16 -78,-34 -103,-25c-11,4 -27,3 -35,-1c-10,-7 -8,-11 10,-18c21,-7 160,20 286,57c26,8 25,9 -15,6c-25,-2 -58,-3 -73,-4c-16,-1 -26,-5 -22,-11c3,-6 -3,-10 -14,-10c-12,0 -21,4 -21,9c0,15 23,26 48,22c13,-1 31,4 40,11c9,8 30,15 45,16c15,1 37,7 48,12c16,9 22,6 37,-20c9,-18 35,-60 58,-94c31,-47 38,-64 29,-73c-6,-6 -77,-27 -156,-48c-160,-41 -183,-51 -220,-92c-63,-70 -81,-125 -65,-205c6,-31 15,-60 19,-64c4,-4 7,-17 7,-28c0,-12 10,-54 21,-93c27,-89 69,-142 137,-170c57,-24 101,-22 179,7c59,22 58,22 107,-23c11,-9 24,-17 29,-17c6,0 15,-6 21,-14c10,-13 16,-13 51,-1c37,14 42,13 67,-5c15,-11 35,-20 45,-20c10,0 146,34 303,76c157,41 476,124 710,183c511,131 661,171 678,180c7,4 20,22 30,41c11,22 25,34 40,35c33,2 74,36 100,84c24,41 30,45 147,96c46,19 92,62 104,95c6,18 6,30 0,30c-5,0 -9,-7 -9,-15c0,-8 -12,-28 -27,-44c-25,-27 -57,-38 -343,-111c-173,-45 -364,-95 -425,-110c-60,-16 -285,-74 -500,-128c-546,-139 -925,-237 -1094,-284c-151,-41 -178,-42 -234,-9c-16,9 -37,30 -48,47c-23,37 -89,290 -89,341c0,45 36,109 75,133c17,11 119,41 227,68l196,48l-44,54c-81,97 -141,216 -180,360c-26,95 -24,306 5,415c39,146 125,302 231,418c185,203 519,324 788,287c249,-34 437,-121 605,-279c191,-180 280,-386 280,-646c0,-71 -5,-132 -12,-149c-6,-16 -10,-30 -9,-32c2,-1 82,17 178,41c96,25 192,45 212,45c53,0 101,-44 121,-112c9,-30 16,-43 16,-30c1,12 -6,39 -16,60c-9,20 -17,41 -17,47c-1,5 -26,22 -57,38l-56,29l-154,-36c-85,-20 -157,-36 -160,-36c-4,0 -3,19 3,43c5,23 8,66 6,95c-3,60 -14,53 137,87c89,20 119,32 141,56c19,21 20,19 -52,193c-18,45 -21,62 -12,73c14,17 -6,85 -34,109c-17,16 -27,15 -155,-16c-76,-18 -142,-34 -148,-36c-5,-2 -26,22 -45,52c-74,118 -279,288 -425,354c-195,89 -448,122 -635,85zm1398,-503c2,-14 -2,-22 -11,-22c-15,0 -29,34 -19,45c11,11 27,-2 30,-23zm-50,-9c6,-19 -28,-29 -39,-12c-5,8 -9,18 -9,22c0,13 43,3 48,-10zm-68,3c0,-2 3,-11 6,-20c4,-12 0,-16 -15,-16c-12,0 -21,2 -21,4c0,2 -3,11 -6,20c-4,12 0,16 15,16c12,0 21,-2 21,-4zm-56,-22c7,-19 -1,-34 -18,-34c-14,0 -28,35 -18,44c11,11 30,6 36,-10zm-64,-8c0,-2 3,-11 6,-19c3,-9 -2,-16 -14,-19c-14,-4 -23,1 -31,18c-10,22 -8,24 14,24c14,0 25,-2 25,-4zm243,-53c3,-16 5,-29 4,-30c-4,-3 -231,-53 -233,-50c-1,1 -5,14 -9,28c-6,25 -5,26 97,52c131,33 135,33 141,0zm27,-86c0,-9 -34,-21 -97,-36c-54,-12 -108,-25 -120,-28c-18,-4 -23,-1 -23,13c0,15 17,23 88,40c105,26 152,29 152,11zm24,-74c8,-19 -8,-38 -23,-29c-16,10 -13,46 3,46c8,0 17,-8 20,-17zm-50,-9c11,-28 7,-35 -16,-32c-30,4 -39,48 -10,48c11,0 23,-7 26,-16zm-70,-20c3,-9 4,-20 0,-25c-7,-12 -54,-12 -54,0c0,5 -3,16 -6,25c-5,12 1,16 24,16c18,0 32,-6 36,-16zm-80,-20c10,-27 7,-34 -18,-34c-22,0 -36,16 -36,41c0,16 48,10 54,-7zm118,-36c-6,-6 -21,-13 -33,-15c-18,-3 -20,-1 -9,12c7,8 22,15 33,15c16,0 18,-3 9,-12zm-2172,-239c0,-12 -55,-17 -62,-6c-14,21 -8,36 15,39c20,4 47,-15 47,-33zm-92,-25c-2,-1 -20,-5 -40,-9c-34,-6 -38,-5 -38,14c0,15 9,23 33,29c27,7 33,6 40,-11c4,-11 6,-21 5,-23zm-114,0c10,-26 7,-31 -21,-37c-39,-7 -63,36 -25,46c32,9 40,7 46,-9zm226,-36c0,-7 3,-22 6,-34c5,-19 -3,-23 -113,-49c-65,-15 -123,-30 -130,-32c-7,-3 -16,9 -21,29c-10,39 -20,33 118,69c120,32 140,34 140,17zm30,-108c0,-12 -7,-20 -17,-20c-10,0 -70,-13 -133,-29c-109,-28 -129,-28 -130,0c0,4 236,65 268,68c6,0 12,-8 12,-19zm23,-79c3,-15 -2,-21 -21,-26c-16,-4 -28,-1 -33,7c-15,22 -10,36 14,40c28,5 34,2 40,-21zm-90,-13c7,-27 7,-27 -24,-30c-18,-2 -25,2 -27,19c-3,19 5,26 39,32c4,0 9,-9 12,-21zm-83,-7c0,-5 3,-16 6,-25c5,-12 0,-16 -20,-16c-19,0 -26,5 -26,18c0,10 3,22 7,25c10,10 33,8 33,-2zm-66,-28c4,-9 1,-20 -6,-25c-24,-14 -38,-8 -38,17c0,29 34,36 44,8zm2436,-339c0,-15 -49,-40 -101,-51c-22,-4 -29,-2 -29,10c0,10 17,19 50,27c28,7 53,16 56,21c9,14 24,10 24,-7zm-170,-48c0,-8 -5,-16 -12,-18c-9,-3 -9,-12 0,-38c7,-18 10,-35 8,-38c-10,-10 -26,11 -31,42c-4,18 -12,33 -18,32c-23,-2 -18,19 5,26c37,10 48,9 48,-6zm-83,-54c7,-20 13,-40 13,-44c0,-15 -24,-8 -48,15l-24,22l7,-32c9,-47 -12,-42 -24,5c-18,62 -10,81 19,47c17,-20 32,-19 29,3c-4,47 8,40 28,-16zm136,14c3,-8 0,-19 -7,-26c-10,-8 -15,-7 -20,6c-3,8 -6,20 -6,25c0,15 27,10 33,-5zm-253,-11c0,-8 -7,-15 -15,-15c-8,0 -15,-5 -15,-11c0,-6 9,-8 20,-4c11,3 20,2 20,-4c0,-5 -9,-13 -20,-16c-29,-9 -14,-26 16,-19c26,7 34,-10 8,-20c-38,-15 -52,-6 -63,38c-6,25 -11,47 -11,50c0,4 12,7 53,15c4,0 7,-6 7,-14zm-71,-97c1,-10 -3,-18 -9,-18c-5,0 -10,12 -11,28l0,27l-16,-23c-15,-22 -17,-22 -36,-5c-19,18 -20,17 -8,-6c9,-15 10,-26 3,-33c-7,-7 -14,2 -21,28c-18,64 -10,84 19,49c18,-22 24,-19 39,18l13,32l13,-40c8,-22 14,-48 14,-57zm-139,43c0,-5 -9,-13 -20,-16c-11,-3 -20,-11 -20,-16c0,-6 9,-7 20,-4c25,8 26,-3 3,-22c-17,-13 -16,-14 4,-10c13,3 26,1 29,-5c8,-12 5,-14 -32,-22c-29,-7 -32,-5 -37,26c-3,18 -8,41 -12,50c-5,12 0,18 17,21c40,8 48,7 48,-2zm-90,-31c0,-5 -8,-10 -17,-10c-31,0 -46,-16 -38,-39c6,-21 45,-30 45,-11c0,6 -4,10 -10,10c-5,0 -10,5 -10,10c0,14 38,12 43,-2c14,-40 -40,-63 -75,-31c-34,31 -14,83 32,83c17,0 30,-4 30,-10zm-111,-56c18,-25 30,-48 27,-51c-4,-4 -11,-2 -17,4c-14,14 -49,5 -49,-13c0,-8 -5,-14 -11,-14c-10,0 -4,93 8,113c7,11 7,10 42,-39zm-93,-45l7,-44l-37,29c-38,28 -38,28 -31,5c4,-13 8,-26 9,-29c0,-3 -3,-6 -9,-8c-9,-3 -38,88 -30,96c2,2 18,-6 36,-19l32,-23l-6,26c-7,28 3,46 15,25c4,-8 10,-34 14,-58zm-115,-26c12,-19 18,-37 14,-41c-4,-4 -10,-1 -12,6c-7,18 -40,15 -52,-5c-17,-31 -22,-8 -10,46c12,58 21,57 60,-6zm-103,-10c6,-26 9,-49 7,-51c-9,-9 -25,11 -26,31c0,21 -1,21 -10,-2c-7,-19 -12,-22 -21,-13c-20,20 -28,13 -18,-13c7,-19 6,-25 -4,-25c-14,0 -42,88 -31,98c3,3 16,-5 29,-17l24,-22l10,30c15,44 29,38 40,-16zm-138,3c0,-13 3,-33 7,-43c4,-10 -7,-2 -24,17c-21,24 -28,37 -20,42c23,14 37,8 37,-16zm-39,-63c21,-33 19,-57 -2,-36c-14,14 -49,5 -49,-13c0,-8 -5,-14 -11,-14c-9,0 -5,71 7,109c6,18 26,1 55,-46zm-107,-8c8,-53 8,-54 -1,-57c-4,-2 -11,11 -14,27c-4,17 -7,26 -8,20c-1,-5 -5,-16 -10,-24c-8,-13 -12,-13 -27,-1c-15,13 -16,12 -10,-18c12,-54 -11,-36 -24,19c-15,60 -8,70 24,40l24,-22l10,30c15,44 29,38 36,-14zm-124,0c0,-3 -12,-11 -27,-17l-28,-11l30,-8c28,-6 29,-7 8,-14c-32,-10 -29,-27 4,-23c15,2 28,-2 30,-9c3,-8 -5,-14 -21,-14c-14,-1 -31,-2 -38,-3c-19,-2 -33,85 -16,95c14,10 58,12 58,4zm-92,-67c6,-28 11,-53 9,-54c-2,-2 -20,8 -40,22c-41,27 -41,27 -27,-10c7,-20 6,-26 -4,-26c-8,0 -17,15 -20,36c-4,19 -10,42 -13,50c-8,21 21,17 42,-6c25,-28 32,-25 27,10c-7,50 12,33 26,-22zm-115,-25c9,-33 10,-50 3,-55c-11,-7 -34,48 -35,85c-2,35 18,16 32,-30zm-69,31c25,-9 19,-22 -11,-26c-20,-2 -29,-9 -31,-26c-4,-25 23,-41 41,-23c15,15 27,14 27,-4c0,-21 -31,-34 -57,-24c-47,17 -50,72 -5,98c21,13 17,12 36,5zm-116,-51c-4,-21 -104,-46 -130,-32c-29,16 -20,29 20,30c20,1 48,5 62,9c40,13 52,11 48,-7z" fill="#ffaad4" id="svg_3"/>
   <path d="m1240,2493c-335,-59 -579,-256 -711,-571c-120,-288 -57,-629 162,-883l49,-56l-83,-23c-45,-12 -111,-30 -147,-40c-36,-10 -100,-25 -143,-35c-145,-31 -171,-79 -133,-245c49,-215 67,-251 132,-269c33,-9 33,-9 394,87c349,92 625,163 1015,262c176,45 381,97 455,116c74,20 250,65 390,101c140,36 259,67 264,70c4,3 14,20 21,38c13,29 11,42 -25,156c-21,68 -45,150 -54,181c-17,59 -52,98 -88,98c-11,0 -111,-23 -223,-50c-112,-28 -207,-50 -212,-50c-5,0 -1,33 9,73c26,96 20,287 -11,395c-99,342 -416,595 -816,652c-92,13 -142,11 -245,-7zm371,-66c108,-28 226,-84 314,-149c77,-57 179,-152 207,-192l21,-31l-29,26c-16,15 -47,38 -69,51c-22,14 -47,33 -55,43c-27,33 -158,125 -229,161c-91,46 -244,85 -355,90c-60,2 -96,9 -110,19c-35,26 184,13 305,-18zm-482,-30c-7,-15 -26,-28 -53,-36c-24,-7 -70,-28 -102,-48c-144,-86 -246,-195 -320,-342c-21,-41 -53,-97 -72,-125l-35,-51l7,35c9,48 76,186 126,260c88,129 214,232 365,298c88,38 98,39 84,9zm164,-9c-1,-16 3,-28 8,-28c20,0 4,-45 -16,-48c-11,-2 -30,-8 -42,-14c-30,-15 -53,-3 -53,27c0,14 -4,25 -10,25c-14,0 -13,26 2,49c9,14 22,18 62,17c49,-1 51,-2 49,-28zm87,-12c0,-8 -4,-18 -10,-21c-5,-3 -10,-16 -10,-28c0,-16 -15,-32 -51,-56c-46,-30 -50,-36 -45,-62c5,-27 4,-28 -20,-17c-18,9 -24,18 -22,36c3,22 11,28 83,63c23,11 31,22 33,49c3,32 15,49 35,50c4,0 7,-6 7,-14zm108,-12c12,-8 20,-20 16,-25c-3,-5 -1,-16 5,-23c9,-10 8,-21 0,-40c-15,-32 -17,-32 -73,2c-51,30 -59,58 -22,72c13,5 27,14 31,19c8,15 17,14 43,-5zm217,-44c58,-25 194,-112 223,-143l23,-24l-21,-6c-16,-4 -37,7 -77,39c-60,49 -189,117 -243,129c-40,8 -60,22 -60,40c0,15 79,-3 155,-35zm-638,-18c-10,-10 -17,-24 -17,-30c0,-6 -30,-31 -67,-55c-78,-51 -164,-137 -215,-218c-20,-31 -45,-59 -57,-62c-12,-3 -21,-2 -21,1c0,20 106,167 155,216c78,77 278,210 222,148zm106,-24c18,-13 34,-24 36,-25c2,-1 -1,-9 -8,-16c-6,-8 -9,-21 -5,-30c3,-10 -2,-20 -15,-27c-23,-12 -45,-5 -36,11c9,13 -9,11 -23,-3c-20,-20 -41,8 -38,50c3,27 10,40 27,49c30,16 24,17 62,-9zm237,-23c30,-16 39,-38 20,-50c-6,-4 -4,-12 5,-21c20,-21 19,-36 -6,-63c-19,-21 -22,-21 -44,-7c-13,9 -31,13 -40,10c-25,-10 -47,16 -41,48c3,15 1,28 -4,28c-16,0 -11,30 5,36c8,4 23,0 32,-7c13,-11 15,-11 9,-1c-11,18 0,42 19,42c9,0 29,-7 45,-15zm240,0c6,-8 10,-20 8,-27c-3,-7 2,-18 11,-24c13,-10 13,-16 3,-39c-7,-16 -19,-25 -30,-24c-9,1 -25,-1 -34,-5c-23,-10 -58,11 -58,35c0,11 -4,29 -10,39c-16,29 28,67 46,39c5,-8 10,-6 16,5c11,20 32,21 48,1zm72,-16c15,-8 19,-17 15,-39c-5,-21 0,-33 18,-50c23,-22 26,-22 49,-7c24,16 56,14 56,-3c0,-5 -19,-22 -41,-39l-42,-30l-27,22c-15,12 -35,27 -45,32c-15,9 -16,14 -4,32c10,17 10,29 2,57c-12,40 -11,41 19,25zm-214,-40c7,-59 13,-71 49,-85c20,-9 45,-13 55,-11c12,4 18,1 15,-6c-4,-13 -20,-13 -78,-2c-30,6 -41,3 -58,-14c-14,-14 -29,-20 -40,-16c-11,3 -26,-1 -35,-10c-13,-14 -22,-15 -51,-5c-26,8 -39,8 -56,-1c-19,-10 -21,-9 -16,6c4,9 7,22 7,29c0,13 37,9 96,-9c14,-5 30,2 54,21c30,26 32,31 27,75c-3,26 -3,50 0,53c12,12 28,-1 31,-25zm286,-32c-3,-9 -10,-17 -14,-17c-12,0 -20,28 -13,46c5,13 8,14 20,2c7,-8 11,-22 7,-31zm-724,-22c7,-9 14,-23 15,-33c1,-9 5,-25 9,-35c11,-23 -12,-50 -37,-43c-11,2 -28,-1 -38,-7c-26,-16 -59,15 -43,41c8,13 8,19 -3,27c-22,16 -5,48 23,42c14,-2 25,2 28,9c7,18 31,18 46,-1zm183,0c4,-8 2,-17 -4,-21c-7,-4 -4,-12 5,-23c15,-16 15,-21 0,-49c-21,-43 -34,-49 -54,-24c-11,13 -21,17 -27,11c-6,-6 -16,-4 -28,5c-16,12 -17,16 -6,30c11,13 11,19 1,32c-19,21 11,54 33,35c12,-9 16,-8 21,4c7,19 52,20 59,0zm-317,-51c8,-33 -9,-52 -31,-34c-15,13 -20,42 -8,53c14,15 33,6 39,-19zm1099,0c48,-20 134,-100 151,-141c38,-90 0,-229 -78,-280c-69,-46 -178,-42 -242,8c-35,28 -33,54 9,90c34,30 45,62 25,74c-5,3 -10,19 -10,35c0,23 -7,33 -30,45c-16,8 -35,15 -43,15c-14,0 -27,28 -27,62c0,24 49,78 85,94c41,18 115,17 160,-2zm-302,-17c16,-11 16,-14 2,-35c-19,-26 -51,-28 -83,-7c-18,14 -20,19 -9,35c14,23 64,27 90,7zm-154,-18c36,-13 38,-22 11,-49c-23,-23 -30,-24 -65,-8c-29,13 -32,30 -9,52c18,19 22,19 63,5zm-685,-11c7,-7 11,-20 8,-30c-5,-19 -22,-25 -22,-8c0,6 -7,10 -15,10c-18,0 -19,6 -2,25c15,18 15,18 31,3zm578,-27c4,-4 1,-17 -8,-29c-16,-24 -53,-29 -71,-11c-9,9 -18,5 -35,-16c-24,-27 -24,-27 -57,-11c-31,16 -32,19 -18,39c12,18 24,22 67,22c35,0 55,4 58,13c4,14 48,9 64,-7zm-495,-23l21,-20l-20,-34c-15,-25 -25,-33 -37,-29c-29,12 -65,24 -108,35c-48,12 -51,18 -24,51l18,23l28,-23l29,-22l25,25c26,26 32,25 68,-6zm173,13c0,-22 -28,-30 -75,-22c-49,8 -47,16 5,24c46,8 70,7 70,-2zm514,-16c23,-18 58,-19 73,-4c8,8 13,0 17,-28c30,-193 107,-661 111,-674c4,-12 -7,-18 -46,-27c-29,-7 -53,-11 -54,-10c-4,4 -60,298 -90,473c-14,83 -30,172 -36,198c-17,87 -12,100 25,72zm-409,-25c7,-11 -34,-60 -50,-60c-24,0 -65,23 -65,36c0,22 37,40 75,36c19,-2 37,-8 40,-12zm278,-10c23,-11 33,-11 48,-2c26,17 29,15 29,-13c0,-22 34,-217 100,-570c10,-55 21,-107 24,-115c6,-13 -30,-25 -201,-69c-114,-29 -216,-54 -226,-55c-15,-1 -30,36 -87,204c-77,232 -154,447 -170,472c-16,28 -12,36 17,36c16,0 35,9 49,25c21,24 24,25 60,12c43,-14 64,-8 88,26c11,17 18,19 34,10c29,-16 67,-14 82,4c9,11 23,14 45,9c27,-5 36,-2 51,20c11,14 21,24 24,23c3,-2 18,-9 33,-17zm-434,-14l24,-14l-26,-26c-31,-31 -56,-33 -87,-8l-23,18l28,22c32,25 50,27 84,8zm-195,-58c87,-44 154,-160 142,-247c-3,-24 -18,-65 -33,-93c-60,-110 -157,-156 -264,-125c-119,35 -189,125 -189,241c1,190 181,307 344,224zm933,0c-3,-18 -1,-42 4,-53c8,-17 9,-17 5,5c-3,14 -2,37 1,50c7,24 8,23 14,-10c14,-66 14,-75 2,-72c-7,1 -13,-5 -13,-14c0,-8 -4,-13 -9,-9c-12,7 -25,110 -16,124c12,20 17,11 12,-21zm427,-80c22,-122 25,-202 11,-284c-19,-104 -41,-161 -66,-167c-24,-6 -24,-8 9,82c26,73 27,82 25,256c-2,167 5,203 21,113zm-1747,-172c1,-30 8,-65 17,-78c8,-12 30,-66 49,-118c61,-170 137,-298 226,-384c22,-22 38,-43 35,-48c-12,-20 -43,-4 -90,45c-112,115 -191,273 -231,462c-20,95 -24,175 -9,175c1,0 2,-24 3,-54zm1673,-97c-21,-112 -74,-219 -107,-219c-18,0 -16,13 7,53c31,53 59,143 66,216c4,38 13,74 23,85c15,17 16,16 19,-30c2,-27 -1,-74 -8,-105zm-290,85l41,-17l-30,-31c-17,-18 -31,-37 -31,-44c0,-28 -18,-9 -25,26c-3,20 -9,47 -12,60c-6,26 3,27 57,6zm230,-19c0,-27 -18,-33 -38,-13c-9,9 -15,9 -24,0c-7,-7 -21,-12 -31,-12c-16,0 -17,3 -7,15c7,8 21,15 31,15c10,0 21,5 24,10c3,6 15,10 26,10c14,0 19,-7 19,-25zm-1020,-60c11,-25 40,-110 65,-188c26,-78 50,-151 55,-162c29,-68 33,-92 18,-114c-14,-20 -14,-29 -1,-78c8,-30 13,-59 11,-64c-5,-16 -120,-59 -155,-59c-44,0 -42,21 5,51c48,31 55,73 18,108c-24,22 -29,23 -65,13c-55,-17 -68,-15 -74,10c-8,29 -5,31 46,33c123,3 168,101 111,247c-31,79 -55,94 -130,82l-48,-7l38,49c20,27 45,66 54,86c9,21 21,38 25,38c4,0 16,-20 27,-45zm915,3c14,-6 25,-17 25,-25c0,-17 -11,-17 -36,2c-29,22 -61,18 -79,-9c-19,-28 -8,-66 26,-90c25,-17 41,-13 33,8c-3,8 -1,17 5,21c6,3 11,18 11,33c0,20 3,23 12,14c8,-8 9,-20 2,-39c-7,-19 -7,-37 0,-55c12,-31 0,-50 -17,-28c-7,8 -21,17 -32,19c-37,6 -53,21 -66,58c-10,31 -9,41 6,70c15,27 24,33 51,33c18,0 45,-5 59,-12zm85,-52c0,-8 -5,-18 -10,-21c-13,-8 -42,14 -34,26c9,15 44,10 44,-5zm702,-248l55,-193l-24,-13c-13,-7 -27,-11 -32,-8c-8,5 -71,112 -136,229c-20,37 -39,66 -41,64c-2,-2 19,-72 46,-157c28,-84 49,-154 48,-155c-2,-2 -15,-6 -31,-10c-19,-5 -27,-3 -27,6c0,7 -25,96 -55,197c-31,102 -54,186 -53,187c2,2 21,6 43,9l40,7l64,-116c35,-63 65,-115 68,-115c3,0 2,8 -2,18c-4,9 -19,58 -35,107c-15,50 -31,97 -35,107c-6,15 5,23 41,27c6,0 35,-86 66,-191zm-2085,83c47,-96 126,-196 195,-244c57,-41 58,-42 34,-50c-33,-11 -62,10 -149,103c-60,65 -157,229 -157,265c0,34 46,-10 77,-74zm1245,30c37,-19 51,-21 62,-12c11,9 15,7 19,-8c6,-24 -7,-36 -51,-46c-19,-4 -48,-20 -67,-36c-20,-18 -39,-27 -49,-23c-18,7 -21,20 -5,29c7,5 8,33 4,84l-7,76l23,-21c13,-11 45,-31 71,-43zm-883,38c25,-9 29,-14 20,-25c-8,-10 -16,-11 -29,-4c-29,16 -72,12 -107,-10c-25,-15 -33,-27 -33,-49c0,-17 -4,-33 -10,-36c-10,-6 -14,-45 -5,-45c4,0 19,7 35,15c21,11 27,20 23,35c-3,11 -12,20 -19,20c-8,0 -14,4 -14,8c0,18 53,32 116,32c56,0 65,-2 62,-17c-3,-14 -12,-17 -52,-14c-46,3 -65,-7 -66,-33c0,-12 98,0 115,14c27,23 35,-62 10,-110c-19,-37 -63,-60 -114,-60c-61,0 -87,17 -110,71c-25,57 -25,58 -5,119c18,56 26,65 80,84c49,18 63,19 103,5zm-159,-8c-1,-17 -31,-42 -46,-39c-26,5 -27,23 -2,35c25,11 48,13 48,4zm-119,-31c-12,-45 -6,-65 26,-79c27,-12 32,-20 35,-56c3,-38 1,-42 -14,-34c-17,9 -118,165 -118,182c0,4 17,7 38,5c27,-2 36,-7 33,-18zm1721,-21c9,-11 22,-44 29,-75c11,-48 10,-57 -4,-71c-15,-15 -14,-18 10,-32c18,-11 33,-38 52,-92l27,-76l-28,-11c-33,-12 -32,-13 -58,71c-11,36 -26,67 -34,70c-25,10 -57,-4 -52,-22c3,-9 12,-42 22,-74c18,-59 16,-70 -21,-81c-18,-5 -23,7 -59,142c-22,81 -47,170 -56,199l-17,52l61,14c71,17 105,14 128,-14zm-1672,-4c14,-17 5,-35 -19,-35c-25,0 -32,10 -20,31c12,23 22,24 39,4zm1277,-32c-14,-15 -30,-24 -34,-20c-4,5 6,19 22,32c39,30 47,22 12,-12zm142,6c17,-6 36,-20 42,-30c22,-42 79,-274 74,-300c-10,-42 -50,-74 -96,-74c-57,0 -76,26 -110,146c-52,185 -49,227 14,254c39,17 37,17 76,4zm-215,-49c14,-5 35,-24 46,-42c21,-34 27,-78 11,-78c-5,0 -16,-3 -25,-6c-11,-4 -17,2 -22,23c-4,15 -11,34 -17,41c-14,18 -55,15 -61,-5c-8,-28 58,-265 77,-277c40,-26 64,32 36,85c-7,13 -2,18 23,23c17,3 33,5 35,3c11,-12 14,-101 4,-125c-22,-53 -100,-69 -146,-29c-45,39 -104,318 -74,353c13,15 63,43 81,44c4,0 18,-4 32,-10zm-187,-65c25,-18 53,-100 53,-155c0,-43 -29,-78 -71,-87c-21,-4 -28,-10 -25,-22c3,-9 12,-43 19,-77l14,-61l-28,-10c-27,-10 -29,-9 -35,15c-6,25 -86,338 -95,371c-3,10 12,18 46,26c70,18 97,17 122,0zm-212,-68c12,-14 36,-80 58,-160c36,-133 37,-139 22,-171c-19,-39 -75,-71 -110,-62c-51,13 -64,36 -100,181c-19,77 -35,149 -35,160c0,73 114,108 165,52zm437,-27c36,0 37,-28 2,-54c-31,-22 -40,-14 -49,39c-6,33 -5,38 6,28c7,-7 26,-13 41,-13zm-653,-28c20,-20 31,-45 40,-94c12,-60 11,-70 -5,-96c-17,-30 -51,-52 -79,-52c-10,0 -9,-12 6,-62c24,-81 24,-82 -10,-94l-28,-11l-32,131c-18,72 -43,163 -56,203l-22,71l56,15c82,22 99,20 130,-11zm-536,-59c8,-5 -11,-33 -22,-33c-17,1 -31,18 -26,33c6,14 21,14 48,0zm201,-8c9,-35 2,-42 -42,-50c-59,-10 -61,-13 -49,-73c12,-58 11,-57 83,-36c17,5 24,0 32,-25c11,-31 10,-31 -27,-37c-60,-10 -62,-13 -44,-74c8,-30 16,-56 17,-57c1,-1 26,5 55,13c29,9 54,14 55,12c2,-1 6,-15 10,-30c6,-25 3,-28 -31,-37c-21,-6 -45,-11 -53,-11c-8,-1 -32,-7 -52,-14l-38,-13l-6,36c-5,29 -70,301 -85,360c-3,9 18,18 69,31c40,9 75,20 79,24c12,12 21,6 27,-19zm-216,-80c25,-31 86,-277 78,-311c-12,-47 -37,-63 -147,-89c-26,-6 -26,-6 -54,112c-23,100 -52,219 -66,272c-5,17 65,39 128,40c33,1 46,-4 61,-24zm1057,-2c3,-16 20,-45 36,-66c21,-26 26,-38 17,-41c-72,-23 -91,-27 -98,-20c-4,5 -13,31 -19,59c-12,48 -12,50 14,72c34,30 41,29 50,-4zm-1296,-50c21,-22 34,-57 61,-164c30,-122 32,-140 20,-168c-25,-61 -117,-82 -159,-37c-26,28 -94,284 -85,321c7,30 34,54 70,65c48,14 64,11 93,-17zm625,-5c3,-13 6,-26 6,-30c0,-7 -99,-42 -104,-37c-2,2 -6,18 -9,35c-6,29 -4,31 36,41c63,15 64,15 71,-9zm-846,-51c25,-26 46,-87 34,-98c-4,-4 -18,-9 -31,-11c-21,-2 -26,2 -32,30c-10,48 -23,58 -54,44c-32,-15 -31,-27 8,-177c27,-102 35,-120 53,-123c34,-5 49,23 37,68c-10,38 -9,39 19,49c26,9 30,8 38,-15c32,-84 -11,-164 -89,-164c-68,0 -86,25 -121,174c-33,139 -35,167 -20,196c27,51 121,66 158,27zm1087,-14c9,-21 26,-48 38,-61c22,-23 22,-24 2,-35c-30,-18 -89,-26 -97,-14c-3,6 -9,31 -13,56c-6,41 -4,48 20,68c14,13 28,23 30,23c3,0 12,-17 20,-37zm-203,-82c22,-71 19,-79 -35,-88c-32,-5 -38,-3 -46,18c-5,13 -20,34 -33,47c-20,18 -30,21 -49,14c-49,-18 -68,13 -24,42c13,9 37,16 52,17c15,0 37,4 48,8c51,20 66,9 87,-58zm-912,-41c0,-5 16,-10 35,-10c24,0 35,-5 35,-15c0,-8 -4,-15 -9,-15c-4,0 -20,-12 -35,-26c-14,-15 -26,-25 -26,-23c0,2 -7,25 -15,52c-12,41 -12,47 0,47c8,0 15,-4 15,-10z" fill="#ffaad4" id="svg_4"/>
   <path d="m1883,2061c-31,-19 -53,-49 -53,-70c0,-5 15,-22 34,-36c33,-25 36,-26 65,-10c18,9 41,13 55,9c18,-4 28,1 45,22c11,15 21,34 21,44c0,51 -109,78 -167,41zm112,-17c26,-26 15,-58 -20,-61c-16,-1 -42,-4 -56,-7c-21,-4 -29,0 -40,20c-12,23 -11,27 6,37c49,29 88,33 110,11z" fill="#ffaad4" id="svg_5"/>
   <path d="m1931,2009c-18,-6 -31,-12 -29,-14c7,-8 78,7 78,16c0,11 -4,10 -49,-2z" fill="#ffaad4" id="svg_6"/>
   <path d="m2063,1968c-18,-19 -20,-31 -16,-71c5,-45 9,-50 49,-70c37,-18 45,-18 59,-7c26,21 16,112 -15,145c-29,31 -50,32 -77,3zm75,-82c-4,-50 -22,-54 -25,-6l-1,35l8,-30c6,-24 8,-25 9,-8c2,31 -17,75 -29,68c-12,-7 -14,8 -3,19c16,16 44,-37 41,-78zm-47,36c0,-14 2,-14 10,3c8,17 9,17 4,-5c-2,-14 -5,-36 -6,-50l-1,-25l-7,25c-19,61 -22,82 -11,75c5,-3 10,-14 11,-23z" fill="#ffaad4" id="svg_7"/>
   <path d="m2002,1893c5,-25 28,-28 28,-4c0,12 -6,21 -16,21c-9,0 -14,-7 -12,-17z" fill="#ffaad4" id="svg_8"/>
   <path d="m2010,1804c-14,-7 -34,-11 -46,-8c-16,4 -27,-2 -43,-24c-38,-54 -23,-83 52,-97c25,-5 48,-1 80,13c74,33 82,77 23,116c-29,19 -33,19 -66,0zm64,-40c11,-28 7,-35 -31,-50c-22,-10 -49,-13 -70,-9c-37,7 -45,25 -10,26c21,0 21,1 2,9c-17,7 -15,9 12,9c17,1 42,-3 56,-8c17,-7 24,-6 24,3c0,7 -7,12 -16,12c-9,0 -34,2 -56,4l-40,3l40,7c66,12 83,11 89,-6z" fill="#ffaad4" id="svg_9"/>
   <path d="m1688,1929c-3,-9 -2,-35 3,-60c23,-111 69,-363 70,-382c1,-18 2,-19 6,-4c3,10 -7,91 -22,180c-36,220 -50,284 -57,266z" fill="#ffaad4" id="svg_10"/>
   <path d="m1540,1915c0,-10 11,-66 24,-124c43,-186 64,-283 86,-396c23,-115 46,-177 35,-95c-8,55 -42,230 -57,285c-6,22 -16,74 -23,115c-30,172 -38,206 -51,220c-12,12 -14,12 -14,-5z" fill="#ffaad4" id="svg_11"/>
   <path d="m1426,1899c-9,-20 11,-116 75,-367c28,-108 53,-213 56,-232c5,-33 32,-85 39,-77c6,5 -20,119 -94,417c-41,161 -72,268 -76,259z" fill="#ffaad4" id="svg_12"/>
   <path d="m1330,1876c0,-17 23,-105 137,-521c20,-71 40,-134 44,-139c13,-14 11,42 -2,84c-6,19 -17,60 -24,90c-17,69 -64,244 -100,375c-27,97 -55,153 -55,111z" fill="#ffaad4" id="svg_13"/>
   <path d="m1130,1840c0,-6 33,-114 74,-238c41,-125 89,-274 107,-331c18,-61 34,-98 39,-91c12,19 7,38 -91,340c-40,124 -74,231 -75,239c-2,7 -7,18 -13,24c-6,6 -11,19 -11,28c0,9 -7,22 -15,29c-11,10 -15,10 -15,0z" fill="#ffaad4" id="svg_14"/>
   <path d="m1215,1823c6,-42 32,-139 45,-162c6,-12 9,-21 6,-21c-2,0 7,-37 20,-82c14,-46 34,-114 45,-153c11,-38 24,-81 29,-95c4,-14 13,-44 19,-66c10,-38 41,-80 41,-57c0,14 -52,196 -121,428c-33,110 -62,208 -65,218c-8,27 -23,20 -19,-10z" fill="#ffaad4" id="svg_15"/>
   <path d="m710,1861c-19,-10 -41,-31 -49,-46c-13,-28 -13,-30 20,-57c25,-22 40,-28 59,-23c14,4 45,9 69,13c37,6 46,13 65,45l21,38l-28,24c-35,31 -106,34 -157,6zm120,-11c0,-6 -10,-8 -23,-5c-12,3 -34,2 -47,-3c-25,-9 -25,-9 7,-16c19,-4 41,-3 53,4c26,14 31,11 23,-18c-3,-13 -13,-22 -24,-22c-11,0 -34,-6 -52,-14c-25,-10 -35,-10 -44,-1c-10,11 -3,38 11,36c23,-3 28,1 13,10c-14,8 -22,6 -38,-13c-17,-20 -19,-21 -17,-4c2,10 19,27 38,37c37,20 100,26 100,9z" fill="#ffaad4" id="svg_16"/>
   <path d="m900,1770c-27,-29 -28,-32 -15,-64c8,-18 12,-41 9,-52c-6,-21 39,-54 75,-54c65,0 44,185 -23,198c-9,2 -30,-10 -46,-28zm75,-81c0,-59 -19,-78 -22,-21c-1,32 0,33 7,12l8,-25l1,25c0,14 -6,39 -14,55l-14,30l6,-34c4,-20 2,-32 -3,-28c-6,3 -8,-9 -6,-29c2,-19 0,-34 -5,-34c-6,0 -10,12 -9,28c0,15 -3,38 -7,52c-6,19 -6,21 2,10c9,-13 11,-12 11,6c0,29 11,37 29,19c9,-9 15,-34 16,-66z" fill="#ffaad4" id="svg_17"/>
   <path d="m610,1712c-18,-22 -20,-35 -15,-67c15,-98 69,-132 117,-75c25,31 26,35 13,60c-8,15 -11,36 -9,48c6,21 -6,31 -60,52c-21,8 -28,5 -46,-18zm26,-33c-4,-21 1,-46 14,-76c14,-32 16,-42 5,-33c-21,18 -37,76 -30,110c9,40 19,39 11,-1zm43,-94c-1,-28 -28,55 -28,85c1,31 2,28 14,-20c8,-30 14,-59 14,-65zm19,48c6,-18 6,-33 2,-33c-10,0 -16,18 -24,70c-6,38 2,23 22,-37z" fill="#ffaad4" id="svg_18"/>
   <path d="m834,1689c-3,-6 -2,-15 4,-21c13,-13 32,-2 32,18c0,16 -26,19 -36,3z" fill="#ffaad4" id="svg_19"/>
   <path d="m743,1664c-7,-19 2,-28 22,-21c19,8 19,23 0,31c-9,3 -18,-1 -22,-10z" fill="#ffaad4" id="svg_20"/>
   <path d="m840,1590c-8,-5 -29,-10 -47,-10c-34,0 -73,-37 -73,-70c0,-78 186,-67 214,13c17,49 -49,96 -94,67zm42,-29c-10,-6 -8,-10 10,-15l23,-6l-28,-25c-32,-28 -93,-43 -110,-26c-8,8 0,11 30,11c26,0 50,7 64,19l24,20l-40,-14c-40,-14 -104,-20 -93,-9c4,3 28,12 55,19l48,14l-50,-4l-50,-4l50,13c61,17 86,20 67,7z" fill="#ffaad4" id="svg_21"/>
   <path d="m1083,1245c-18,-8 -33,-21 -33,-28c0,-23 -31,-29 -51,-11c-13,12 -25,14 -44,7l-26,-8l20,-27c55,-69 183,-21 169,63c-3,16 -6,16 -35,4z" fill="#ffaad4" id="svg_22"/>
   <path d="m2420,1304c0,-9 31,-129 35,-132c1,-1 14,3 29,9c30,14 34,42 12,94c-13,29 -20,35 -45,35c-17,0 -31,-3 -31,-6z" fill="#ffaad4" id="svg_23"/>
   <path d="m2212,1247c-9,-10 -3,-43 23,-138c39,-137 63,-172 95,-134c9,11 5,41 -22,147c-32,124 -36,133 -60,136c-13,2 -30,-3 -36,-11z" fill="#ffaad4" id="svg_24"/>
   <path d="m1803,1152c-27,-4 -27,2 -5,-89c17,-72 18,-72 42,-60c29,15 36,48 20,105c-11,42 -21,50 -57,44z" fill="#ffaad4" id="svg_25"/>
   <path d="m1563,1084c-3,-8 10,-75 29,-147c32,-123 36,-132 59,-135c47,-6 50,14 18,127c-16,58 -29,114 -29,126c0,11 -5,26 -12,33c-17,17 -58,15 -65,-4z" fill="#ffaad4" id="svg_26"/>
   <path d="m1345,1023c3,-10 13,-44 20,-77c8,-32 16,-60 19,-63c3,-3 17,2 31,11c22,15 24,21 19,59c-12,76 -20,87 -60,87c-30,0 -35,-3 -29,-17z" fill="#ffaad4" id="svg_27"/>
   <path d="m798,893c-10,-2 -18,-7 -18,-9c0,-3 14,-59 30,-124c17,-65 30,-130 30,-144c0,-30 -2,-29 39,-15c39,14 39,25 5,172c-29,126 -34,134 -86,120z" fill="#ffaad4" id="svg_28"/>
   <path d="m567,834c-12,-13 -8,-52 19,-162c29,-115 37,-132 64,-132c37,0 38,22 6,160c-29,127 -33,135 -56,138c-14,2 -29,0 -33,-4z" fill="#ffaad4" id="svg_29"/>
   <path d="m2175,2468c-31,-14 -57,-56 -58,-93c-1,-42 25,-82 68,-102c48,-23 103,-2 128,49c18,36 18,38 -2,83c-25,56 -88,85 -136,63zm100,-43c52,-51 17,-135 -55,-135c-41,0 -84,53 -76,94c14,68 83,90 131,41z" fill="#ffaad4" id="svg_30"/>
   <path d="m2178,2395c-26,-58 36,-101 82,-55c31,31 6,80 -41,80c-22,0 -32,-7 -41,-25zm68,-17c8,-12 -24,-40 -37,-32c-5,3 -9,14 -9,25c0,21 34,27 46,7z" fill="#ffaad4" id="svg_31"/>
   <path d="m189,1797c-66,-45 -75,-100 -23,-152c28,-28 59,-31 109,-11c37,16 55,42 55,80c0,43 -20,75 -54,82c-17,3 -36,10 -42,15c-7,6 -24,0 -45,-14zm96,-32c33,-32 32,-68 -1,-94c-30,-24 -55,-26 -87,-10c-29,16 -37,28 -37,61c0,32 41,68 77,68c13,0 35,-11 48,-25z" fill="#ffaad4" id="svg_32"/>
   <path d="m191,1742c-7,-14 -6,-25 5,-41c30,-42 105,-7 78,37c-16,25 -70,28 -83,4zm59,-17c0,-8 -9,-15 -20,-15c-20,0 -26,11 -13,23c12,13 33,7 33,-8z" fill="#ffaad4" id="svg_33"/>
   <path d="m2883,1295c22,-81 31,-105 39,-105c10,0 10,7 -2,29c-5,10 -11,31 -14,46c-3,16 -10,33 -17,39c-8,8 -10,6 -6,-9z" fill="#ffaad4" id="svg_34"/>
   <path d="m2570,677c-21,-24 -52,-36 -205,-78c-99,-27 -218,-59 -265,-70c-47,-10 -105,-26 -130,-34c-76,-24 -165,-45 -191,-45c-13,0 -60,-11 -104,-24c-102,-31 -232,-66 -577,-156l-277,-73l-48,20c-26,11 -68,21 -93,21c-48,1 -49,2 30,-31c14,-5 39,-17 57,-25c36,-18 68,-13 233,31c244,66 332,86 348,81c24,-8 51,-19 95,-38c21,-9 51,-16 67,-16c24,0 33,-7 49,-38c23,-46 46,-67 93,-87c90,-37 175,-13 238,66c21,26 41,45 45,41c5,-4 5,-1 1,5c-4,7 -2,22 4,33c6,11 7,20 1,20c-5,0 -11,-10 -15,-23c-10,-41 -84,-116 -127,-128c-61,-19 -138,2 -184,49c-20,20 -38,46 -41,57c-4,15 -27,27 -94,48c-50,16 -92,33 -96,38c-12,20 79,8 124,-16c26,-14 56,-25 67,-25c14,0 25,-12 37,-40c22,-52 68,-80 133,-80c91,0 158,65 153,148c-2,37 3,47 37,83c80,82 110,100 203,119c48,10 133,33 189,49c56,17 110,31 119,31c29,0 109,44 133,73c31,37 23,50 -9,14zm-633,-238c-7,-18 -23,-39 -36,-47c-22,-15 -24,-14 -37,3c-20,26 -17,35 9,35c12,0 33,9 47,20c14,11 26,20 27,20c1,0 -4,-14 -10,-31zm-129,-45c24,-5 52,-55 52,-94c0,-11 -16,-38 -37,-60c-27,-31 -43,-40 -61,-38c-31,4 -42,28 -14,28c31,0 82,48 82,76c0,27 -40,74 -63,74c-29,0 -78,-23 -87,-40c-18,-33 -11,-68 17,-90c21,-16 24,-23 14,-33c-20,-19 -71,47 -71,93c0,40 13,66 28,56c6,-3 22,4 35,18c24,24 34,25 105,10zm-205,-48c-4,-17 -13,-25 -33,-28c-31,-5 -74,18 -49,26c8,2 28,9 44,14c43,15 43,15 38,-12zm186,-22c10,-22 9,-30 -5,-45c-32,-35 -84,-18 -84,26c0,50 68,64 89,19z" fill="#ffaad4" id="svg_35"/>
   <path d="m1725,310c-8,-12 20,-24 35,-15c6,3 8,11 5,16c-8,12 -32,12 -40,-1z" fill="#ffaad4" id="svg_36"/>
   <path d="m2050,454c-14,-13 -48,-43 -77,-66c-43,-33 -52,-45 -47,-62c10,-33 24,-43 19,-13c-4,21 2,31 32,54c21,15 44,34 51,41c7,6 18,12 23,12c10,0 33,50 26,56c-2,2 -14,-8 -27,-22z" fill="#ffaad4" id="svg_37"/>
  </g>
 </g>
</svg>